<?xml version="1.0" encoding="UTF-8"?>
<svg xmlns="http://www.w3.org/2000/svg" xmlns:xlink="http://www.w3.org/1999/xlink" width="283.229645pt" height="203.593048pt" viewBox="0 0 283.229645 203.593048" version="1.1">
<g id="surface1">
<path style=" stroke:none;fill-rule:nonzero;fill:rgb(100%,100%,100%);fill-opacity:1;" d="M 0 0 L 283.230469 0 L 283.230469 203.59375 L 0 203.59375 Z M 0 0 "/>
<path style=" stroke:none;fill-rule:nonzero;fill:rgb(0%,0%,0%);fill-opacity:1;" d="M 7.132812 5.410156 L 6.164062 5.410156 L 6.164062 6.378906 L 7.132812 6.378906 Z M 7.054688 7.988281 L 6.242188 7.988281 L 6.242188 12.832031 L 7.054688 12.832031 Z M 7.054688 7.988281 "/>
<path style=" stroke:none;fill-rule:nonzero;fill:rgb(0%,0%,0%);fill-opacity:1;" d="M 12.707031 9.582031 C 12.707031 8.863281 12.535156 7.863281 11.207031 7.863281 C 10.222656 7.863281 9.691406 8.613281 9.628906 8.691406 L 9.628906 7.925781 L 8.847656 7.925781 L 8.847656 12.832031 L 9.691406 12.832031 L 9.691406 10.160156 C 9.691406 9.441406 9.957031 8.535156 10.785156 8.535156 C 11.832031 8.535156 11.847656 9.316406 11.847656 9.660156 L 11.847656 12.832031 L 12.707031 12.832031 Z M 12.707031 9.582031 "/>
<path style=" stroke:none;fill-rule:nonzero;fill:rgb(0%,0%,0%);fill-opacity:1;" d="M 15.34375 12.332031 C 15.671875 12.644531 16.15625 12.957031 16.8125 12.957031 C 17.875 12.957031 18.828125 11.878906 18.828125 10.394531 C 18.828125 9.097656 18.140625 7.863281 17.09375 7.863281 C 16.4375 7.863281 15.8125 8.097656 15.3125 8.519531 L 15.3125 7.988281 L 14.484375 7.988281 L 14.484375 14.941406 L 15.34375 14.941406 Z M 15.34375 9.207031 C 15.59375 8.816406 16.03125 8.566406 16.5 8.566406 C 17.328125 8.566406 17.984375 9.394531 17.984375 10.394531 C 17.984375 11.519531 17.203125 12.285156 16.390625 12.285156 C 15.953125 12.285156 15.671875 12.066406 15.453125 11.769531 C 15.34375 11.613281 15.34375 11.582031 15.34375 11.394531 Z M 15.34375 9.207031 "/>
<path style=" stroke:none;fill-rule:nonzero;fill:rgb(0%,0%,0%);fill-opacity:1;" d="M 23.980469 7.988281 L 23.121094 7.988281 L 23.121094 11.160156 C 23.121094 11.972656 22.511719 12.347656 21.808594 12.347656 C 21.042969 12.347656 20.964844 12.066406 20.964844 11.597656 L 20.964844 7.988281 L 20.121094 7.988281 L 20.121094 11.644531 C 20.121094 12.425781 20.371094 12.957031 21.277344 12.957031 C 21.855469 12.957031 22.621094 12.785156 23.152344 12.300781 L 23.152344 12.832031 L 23.980469 12.832031 Z M 23.980469 7.988281 "/>
<path style=" stroke:none;fill-rule:nonzero;fill:rgb(0%,0%,0%);fill-opacity:1;" d="M 26.773438 8.628906 L 28.320312 8.628906 L 28.320312 7.988281 L 26.773438 7.988281 L 26.773438 6.597656 L 26.023438 6.597656 L 26.023438 7.988281 L 25.070312 7.988281 L 25.070312 8.628906 L 25.992188 8.628906 L 25.992188 11.535156 C 25.992188 12.191406 26.148438 12.957031 26.898438 12.957031 C 27.664062 12.957031 28.210938 12.675781 28.492188 12.535156 L 28.320312 11.894531 C 28.023438 12.128906 27.679688 12.253906 27.335938 12.253906 C 26.929688 12.253906 26.773438 11.925781 26.773438 11.347656 Z M 26.773438 8.628906 "/>
<path style=" stroke:none;fill-rule:nonzero;fill:rgb(0%,0%,0%);fill-opacity:1;" d="M 113.410156 11.050781 C 113.738281 11.363281 114.222656 11.675781 114.878906 11.675781 C 115.941406 11.675781 116.894531 10.597656 116.894531 9.113281 C 116.894531 7.816406 116.207031 6.582031 115.160156 6.582031 C 114.503906 6.582031 113.878906 6.816406 113.378906 7.238281 L 113.378906 6.707031 L 112.550781 6.707031 L 112.550781 13.660156 L 113.410156 13.660156 Z M 113.410156 7.925781 C 113.660156 7.535156 114.097656 7.285156 114.566406 7.285156 C 115.394531 7.285156 116.050781 8.113281 116.050781 9.113281 C 116.050781 10.238281 115.269531 11.003906 114.457031 11.003906 C 114.019531 11.003906 113.738281 10.785156 113.519531 10.488281 C 113.410156 10.332031 113.410156 10.300781 113.410156 10.113281 Z M 113.410156 7.925781 "/>
<path style=" stroke:none;fill-rule:nonzero;fill:rgb(0%,0%,0%);fill-opacity:1;" d="M 118.710938 9.222656 C 118.710938 8.128906 119.492188 7.347656 120.554688 7.316406 L 120.554688 6.582031 C 119.585938 6.597656 118.992188 7.128906 118.648438 7.628906 L 118.648438 6.644531 L 117.882812 6.644531 L 117.882812 11.550781 L 118.710938 11.550781 Z M 118.710938 9.222656 "/>
<path style=" stroke:none;fill-rule:nonzero;fill:rgb(0%,0%,0%);fill-opacity:1;" d="M 125.828125 9.144531 C 125.828125 7.691406 124.75 6.519531 123.4375 6.519531 C 122.109375 6.519531 121.046875 7.722656 121.046875 9.144531 C 121.046875 10.597656 122.15625 11.675781 123.4375 11.675781 C 124.75 11.675781 125.828125 10.566406 125.828125 9.144531 Z M 123.4375 10.972656 C 122.6875 10.972656 121.890625 10.363281 121.890625 9.035156 C 121.890625 7.722656 122.71875 7.191406 123.4375 7.191406 C 124.203125 7.191406 124.984375 7.753906 124.984375 9.035156 C 124.984375 10.332031 124.234375 10.972656 123.4375 10.972656 Z M 123.4375 10.972656 "/>
<path style=" stroke:none;fill-rule:nonzero;fill:rgb(0%,0%,0%);fill-opacity:1;" d="M 130.019531 7.285156 C 130.253906 7.285156 130.566406 7.238281 130.816406 7.238281 C 131.019531 7.238281 131.441406 7.269531 131.472656 7.269531 L 131.347656 6.582031 C 130.582031 6.582031 129.957031 6.800781 129.628906 6.941406 C 129.394531 6.753906 129.019531 6.582031 128.582031 6.582031 C 127.644531 6.582031 126.847656 7.378906 126.847656 8.363281 C 126.847656 8.769531 126.988281 9.160156 127.207031 9.441406 C 126.894531 9.894531 126.894531 10.316406 126.894531 10.378906 C 126.894531 10.660156 126.988281 10.972656 127.175781 11.207031 C 126.613281 11.535156 126.488281 12.035156 126.488281 12.332031 C 126.488281 13.144531 127.566406 13.800781 128.894531 13.800781 C 130.238281 13.800781 131.316406 13.160156 131.316406 12.316406 C 131.316406 10.800781 129.488281 10.800781 129.066406 10.800781 L 128.113281 10.800781 C 127.957031 10.800781 127.472656 10.800781 127.472656 10.222656 C 127.472656 10.097656 127.519531 9.925781 127.597656 9.832031 C 127.816406 9.988281 128.175781 10.144531 128.582031 10.144531 C 129.566406 10.144531 130.332031 9.332031 130.332031 8.363281 C 130.332031 7.847656 130.097656 7.441406 129.972656 7.269531 Z M 128.582031 9.519531 C 128.175781 9.519531 127.613281 9.269531 127.613281 8.363281 C 127.613281 7.457031 128.175781 7.207031 128.582031 7.207031 C 129.050781 7.207031 129.566406 7.519531 129.566406 8.363281 C 129.566406 9.222656 129.050781 9.519531 128.582031 9.519531 Z M 129.082031 11.582031 C 129.316406 11.582031 130.550781 11.582031 130.550781 12.332031 C 130.550781 12.816406 129.800781 13.175781 128.894531 13.175781 C 128.019531 13.175781 127.238281 12.832031 127.238281 12.332031 C 127.238281 12.285156 127.238281 11.582031 128.097656 11.582031 Z M 129.082031 11.582031 "/>
<path style=" stroke:none;fill-rule:nonzero;fill:rgb(0%,0%,0%);fill-opacity:1;" d="M 133.347656 9.222656 C 133.347656 8.128906 134.128906 7.347656 135.191406 7.316406 L 135.191406 6.582031 C 134.222656 6.597656 133.628906 7.128906 133.285156 7.628906 L 133.285156 6.644531 L 132.519531 6.644531 L 132.519531 11.550781 L 133.347656 11.550781 Z M 133.347656 9.222656 "/>
<path style=" stroke:none;fill-rule:nonzero;fill:rgb(0%,0%,0%);fill-opacity:1;" d="M 139.714844 8.394531 C 139.714844 7.285156 138.917969 6.519531 137.902344 6.519531 C 137.199219 6.519531 136.714844 6.691406 136.199219 6.988281 L 136.261719 7.707031 C 136.824219 7.300781 137.371094 7.160156 137.902344 7.160156 C 138.417969 7.160156 138.855469 7.597656 138.855469 8.410156 L 138.855469 8.878906 C 137.214844 8.894531 135.839844 9.363281 135.839844 10.316406 C 135.839844 10.785156 136.136719 11.675781 137.074219 11.675781 C 137.230469 11.675781 138.261719 11.644531 138.886719 11.160156 L 138.886719 11.550781 L 139.714844 11.550781 Z M 138.855469 10.113281 C 138.855469 10.316406 138.855469 10.597656 138.480469 10.800781 C 138.167969 10.988281 137.761719 11.003906 137.636719 11.003906 C 137.105469 11.003906 136.621094 10.753906 136.621094 10.300781 C 136.621094 9.535156 138.386719 9.457031 138.855469 9.441406 Z M 138.855469 10.113281 "/>
<path style=" stroke:none;fill-rule:nonzero;fill:rgb(0%,0%,0%);fill-opacity:1;" d="M 148.382812 8.300781 C 148.382812 7.566406 148.210938 6.582031 146.882812 6.582031 C 146.226562 6.582031 145.664062 6.894531 145.257812 7.488281 C 144.976562 6.660156 144.210938 6.582031 143.867188 6.582031 C 143.070312 6.582031 142.570312 7.035156 142.273438 7.425781 L 142.273438 6.644531 L 141.492188 6.644531 L 141.492188 11.550781 L 142.335938 11.550781 L 142.335938 8.878906 C 142.335938 8.144531 142.632812 7.253906 143.429688 7.253906 C 144.445312 7.253906 144.507812 7.957031 144.507812 8.378906 L 144.507812 11.550781 L 145.351562 11.550781 L 145.351562 8.878906 C 145.351562 8.144531 145.648438 7.253906 146.460938 7.253906 C 147.476562 7.253906 147.523438 7.957031 147.523438 8.378906 L 147.523438 11.550781 L 148.382812 11.550781 Z M 148.382812 8.300781 "/>
<path style=" stroke:none;fill-rule:nonzero;fill:rgb(0%,0%,0%);fill-opacity:1;" d="M 233.835938 9.835938 C 233.835938 8.382812 232.757812 7.210938 231.445312 7.210938 C 230.117188 7.210938 229.054688 8.414062 229.054688 9.835938 C 229.054688 11.289062 230.164062 12.367188 231.445312 12.367188 C 232.757812 12.367188 233.835938 11.257812 233.835938 9.835938 Z M 231.445312 11.664062 C 230.695312 11.664062 229.898438 11.054688 229.898438 9.726562 C 229.898438 8.414062 230.726562 7.882812 231.445312 7.882812 C 232.210938 7.882812 232.992188 8.445312 232.992188 9.726562 C 232.992188 11.023438 232.242188 11.664062 231.445312 11.664062 Z M 231.445312 11.664062 "/>
<path style=" stroke:none;fill-rule:nonzero;fill:rgb(0%,0%,0%);fill-opacity:1;" d="M 238.933594 7.398438 L 238.074219 7.398438 L 238.074219 10.570312 C 238.074219 11.382812 237.464844 11.757812 236.761719 11.757812 C 235.996094 11.757812 235.917969 11.476562 235.917969 11.007812 L 235.917969 7.398438 L 235.074219 7.398438 L 235.074219 11.054688 C 235.074219 11.835938 235.324219 12.367188 236.230469 12.367188 C 236.808594 12.367188 237.574219 12.195312 238.105469 11.710938 L 238.105469 12.242188 L 238.933594 12.242188 Z M 238.933594 7.398438 "/>
<path style=" stroke:none;fill-rule:nonzero;fill:rgb(0%,0%,0%);fill-opacity:1;" d="M 241.726562 8.039062 L 243.273438 8.039062 L 243.273438 7.398438 L 241.726562 7.398438 L 241.726562 6.007812 L 240.976562 6.007812 L 240.976562 7.398438 L 240.023438 7.398438 L 240.023438 8.039062 L 240.945312 8.039062 L 240.945312 10.945312 C 240.945312 11.601562 241.101562 12.367188 241.851562 12.367188 C 242.617188 12.367188 243.164062 12.085938 243.445312 11.945312 L 243.273438 11.304688 C 242.976562 11.539062 242.632812 11.664062 242.289062 11.664062 C 241.882812 11.664062 241.726562 11.335938 241.726562 10.757812 Z M 241.726562 8.039062 "/>
<path style=" stroke:none;fill-rule:nonzero;fill:rgb(0%,0%,0%);fill-opacity:1;" d="M 245.507812 11.742188 C 245.835938 12.054688 246.320312 12.367188 246.976562 12.367188 C 248.039062 12.367188 248.992188 11.289062 248.992188 9.804688 C 248.992188 8.507812 248.304688 7.273438 247.257812 7.273438 C 246.601562 7.273438 245.976562 7.507812 245.476562 7.929688 L 245.476562 7.398438 L 244.648438 7.398438 L 244.648438 14.351562 L 245.507812 14.351562 Z M 245.507812 8.617188 C 245.757812 8.226562 246.195312 7.976562 246.664062 7.976562 C 247.492188 7.976562 248.148438 8.804688 248.148438 9.804688 C 248.148438 10.929688 247.367188 11.695312 246.554688 11.695312 C 246.117188 11.695312 245.835938 11.476562 245.617188 11.179688 C 245.507812 11.023438 245.507812 10.992188 245.507812 10.804688 Z M 245.507812 8.617188 "/>
<path style=" stroke:none;fill-rule:nonzero;fill:rgb(0%,0%,0%);fill-opacity:1;" d="M 254.144531 7.398438 L 253.285156 7.398438 L 253.285156 10.570312 C 253.285156 11.382812 252.675781 11.757812 251.972656 11.757812 C 251.207031 11.757812 251.128906 11.476562 251.128906 11.007812 L 251.128906 7.398438 L 250.285156 7.398438 L 250.285156 11.054688 C 250.285156 11.835938 250.535156 12.367188 251.441406 12.367188 C 252.019531 12.367188 252.785156 12.195312 253.316406 11.710938 L 253.316406 12.242188 L 254.144531 12.242188 Z M 254.144531 7.398438 "/>
<path style=" stroke:none;fill-rule:nonzero;fill:rgb(0%,0%,0%);fill-opacity:1;" d="M 256.9375 8.039062 L 258.484375 8.039062 L 258.484375 7.398438 L 256.9375 7.398438 L 256.9375 6.007812 L 256.1875 6.007812 L 256.1875 7.398438 L 255.234375 7.398438 L 255.234375 8.039062 L 256.15625 8.039062 L 256.15625 10.945312 C 256.15625 11.601562 256.3125 12.367188 257.0625 12.367188 C 257.828125 12.367188 258.375 12.085938 258.65625 11.945312 L 258.484375 11.304688 C 258.1875 11.539062 257.84375 11.664062 257.5 11.664062 C 257.09375 11.664062 256.9375 11.335938 256.9375 10.757812 Z M 256.9375 8.039062 "/>
<path style="fill:none;stroke-width:0.99628;stroke-linecap:butt;stroke-linejoin:miter;stroke:rgb(100%,0%,0%);stroke-opacity:1;stroke-miterlimit:10;" d="M 95.03125 52.707031 L 165.898438 52.707031 L 165.898438 81.054688 L 95.03125 81.054688 Z M 95.03125 52.707031 "/>
<path style=" stroke:none;fill-rule:nonzero;fill:rgb(100%,0%,0%);fill-opacity:1;" d="M 119.503906 67.417969 C 119.503906 66.683594 119.332031 65.699219 118.003906 65.699219 C 117.347656 65.699219 116.785156 66.011719 116.378906 66.605469 C 116.097656 65.777344 115.332031 65.699219 114.988281 65.699219 C 114.191406 65.699219 113.691406 66.152344 113.394531 66.542969 L 113.394531 65.761719 L 112.613281 65.761719 L 112.613281 70.667969 L 113.457031 70.667969 L 113.457031 67.996094 C 113.457031 67.261719 113.753906 66.371094 114.550781 66.371094 C 115.566406 66.371094 115.628906 67.074219 115.628906 67.496094 L 115.628906 70.667969 L 116.472656 70.667969 L 116.472656 67.996094 C 116.472656 67.261719 116.769531 66.371094 117.582031 66.371094 C 118.597656 66.371094 118.644531 67.074219 118.644531 67.496094 L 118.644531 70.667969 L 119.503906 70.667969 Z M 119.503906 67.417969 "/>
<path style=" stroke:none;fill-rule:nonzero;fill:rgb(100%,0%,0%);fill-opacity:1;" d="M 124.746094 67.511719 C 124.746094 66.402344 123.949219 65.636719 122.933594 65.636719 C 122.230469 65.636719 121.746094 65.808594 121.230469 66.105469 L 121.292969 66.824219 C 121.855469 66.417969 122.402344 66.277344 122.933594 66.277344 C 123.449219 66.277344 123.886719 66.714844 123.886719 67.527344 L 123.886719 67.996094 C 122.246094 68.011719 120.871094 68.480469 120.871094 69.433594 C 120.871094 69.902344 121.167969 70.792969 122.105469 70.792969 C 122.261719 70.792969 123.292969 70.761719 123.917969 70.277344 L 123.917969 70.667969 L 124.746094 70.667969 Z M 123.886719 69.230469 C 123.886719 69.433594 123.886719 69.714844 123.511719 69.917969 C 123.199219 70.105469 122.792969 70.121094 122.667969 70.121094 C 122.136719 70.121094 121.652344 69.871094 121.652344 69.417969 C 121.652344 68.652344 123.417969 68.574219 123.886719 68.558594 Z M 123.886719 69.230469 "/>
<path style=" stroke:none;fill-rule:nonzero;fill:rgb(100%,0%,0%);fill-opacity:1;" d="M 130.097656 66.105469 C 129.457031 65.746094 129.082031 65.636719 128.425781 65.636719 C 126.910156 65.636719 126.019531 66.964844 126.019531 68.246094 C 126.019531 69.605469 127.019531 70.792969 128.378906 70.792969 C 128.972656 70.792969 129.566406 70.636719 130.160156 70.230469 L 130.082031 69.496094 C 129.535156 69.933594 128.941406 70.089844 128.394531 70.089844 C 127.488281 70.089844 126.878906 69.308594 126.878906 68.230469 C 126.878906 67.386719 127.269531 66.339844 128.425781 66.339844 C 129.003906 66.339844 129.363281 66.417969 129.972656 66.824219 Z M 130.097656 66.105469 "/>
<path style=" stroke:none;fill-rule:nonzero;fill:rgb(100%,0%,0%);fill-opacity:1;" d="M 135.226562 67.417969 C 135.226562 66.699219 135.054688 65.699219 133.726562 65.699219 C 133.054688 65.699219 132.523438 66.042969 132.179688 66.496094 L 132.179688 63.105469 L 131.367188 63.105469 L 131.367188 70.667969 L 132.210938 70.667969 L 132.210938 67.996094 C 132.210938 67.277344 132.476562 66.371094 133.304688 66.371094 C 134.351562 66.371094 134.367188 67.152344 134.367188 67.496094 L 134.367188 70.667969 L 135.226562 70.667969 Z M 135.226562 67.417969 "/>
<path style=" stroke:none;fill-rule:nonzero;fill:rgb(100%,0%,0%);fill-opacity:1;" d="M 137.894531 63.246094 L 136.925781 63.246094 L 136.925781 64.214844 L 137.894531 64.214844 Z M 137.816406 65.824219 L 137.003906 65.824219 L 137.003906 70.667969 L 137.816406 70.667969 Z M 137.816406 65.824219 "/>
<path style=" stroke:none;fill-rule:nonzero;fill:rgb(100%,0%,0%);fill-opacity:1;" d="M 143.472656 67.417969 C 143.472656 66.699219 143.300781 65.699219 141.972656 65.699219 C 140.988281 65.699219 140.457031 66.449219 140.394531 66.527344 L 140.394531 65.761719 L 139.613281 65.761719 L 139.613281 70.667969 L 140.457031 70.667969 L 140.457031 67.996094 C 140.457031 67.277344 140.722656 66.371094 141.550781 66.371094 C 142.597656 66.371094 142.613281 67.152344 142.613281 67.496094 L 142.613281 70.667969 L 143.472656 70.667969 Z M 143.472656 67.417969 "/>
<path style=" stroke:none;fill-rule:nonzero;fill:rgb(100%,0%,0%);fill-opacity:1;" d="M 148.875 68.277344 C 148.875 67.902344 148.859375 67.089844 148.4375 66.433594 C 147.984375 65.761719 147.328125 65.636719 146.9375 65.636719 C 145.71875 65.636719 144.734375 66.792969 144.734375 68.199219 C 144.734375 69.636719 145.78125 70.792969 147.09375 70.792969 C 147.78125 70.792969 148.40625 70.527344 148.828125 70.214844 L 148.765625 69.511719 C 148.078125 70.074219 147.359375 70.121094 147.109375 70.121094 C 146.234375 70.121094 145.53125 69.355469 145.5 68.277344 Z M 145.5625 67.683594 C 145.734375 66.855469 146.3125 66.308594 146.9375 66.308594 C 147.5 66.308594 148.109375 66.683594 148.25 67.683594 Z M 145.5625 67.683594 "/>
<path style="fill:none;stroke-width:0.99628;stroke-linecap:butt;stroke-linejoin:miter;stroke:rgb(100%,0%,0%);stroke-opacity:1;stroke-miterlimit:10;" d="M 17.078125 18.789062 C 17.078125 47.136719 37.839844 70.421875 93.703125 70.421875 "/>
<path style="fill:none;stroke-width:0.79701;stroke-linecap:round;stroke-linejoin:round;stroke:rgb(100%,0%,0%);stroke-opacity:1;stroke-miterlimit:10;" d="M 91.96875 68.113281 C 92.113281 68.980469 93.703125 70.277344 94.136719 70.421875 C 93.703125 70.566406 92.113281 71.867188 91.96875 72.734375 "/>
<path style="fill:none;stroke-width:0.99628;stroke-linecap:butt;stroke-linejoin:miter;stroke:rgb(100%,0%,0%);stroke-opacity:1;stroke-miterlimit:10;" d="M 130.464844 17.507812 C 130.464844 31.679688 116.292969 37.347656 102.121094 37.347656 C 73.773438 37.347656 66.1875 63.335938 93.703125 63.335938 "/>
<path style="fill:none;stroke-width:0.79701;stroke-linecap:round;stroke-linejoin:round;stroke:rgb(100%,0%,0%);stroke-opacity:1;stroke-miterlimit:10;" d="M 91.96875 61.023438 C 92.113281 61.890625 93.703125 63.191406 94.136719 63.335938 C 93.703125 63.480469 92.113281 64.78125 91.96875 65.648438 "/>
<path style="fill:none;stroke-width:0.99628;stroke-linecap:butt;stroke-linejoin:miter;stroke:rgb(100%,0%,0%);stroke-opacity:1;stroke-miterlimit:10;" d="M 166.398438 66.878906 C 223.089844 66.878906 251.4375 38.535156 244.144531 18.980469 "/>
<path style="fill:none;stroke-width:0.796967;stroke-linecap:round;stroke-linejoin:round;stroke:rgb(100%,0%,0%);stroke-opacity:1;stroke-miterlimit:10;" d="M 242.585938 21.410156 C 243.347656 20.972656 244.007812 19.027344 243.992188 18.574219 C 244.28125 18.929688 246.054688 19.960938 246.914062 19.796875 "/>
<path style="fill:none;stroke-width:0.99628;stroke-linecap:butt;stroke-linejoin:miter;stroke:rgb(96.076965%,52.156067%,6.666565%);stroke-opacity:1;stroke-miterlimit:10;" d="M 95.03125 81.054688 L 165.898438 81.054688 L 165.898438 109.398438 L 95.03125 109.398438 Z M 95.03125 81.054688 "/>
<path style=" stroke:none;fill-rule:nonzero;fill:rgb(96.076965%,52.156067%,6.666565%);fill-opacity:1;" d="M 129.164062 91.453125 L 128.320312 91.453125 L 126.867188 95.171875 C 126.695312 95.625 125.867188 97.734375 125.773438 98.234375 L 125.757812 98.234375 C 125.679688 97.796875 125.210938 96.59375 125.101562 96.328125 L 123.226562 91.453125 L 122.210938 91.453125 L 125.179688 99.015625 L 126.195312 99.015625 Z M 129.164062 91.453125 "/>
<path style=" stroke:none;fill-rule:nonzero;fill:rgb(96.076965%,52.156067%,6.666565%);fill-opacity:1;" d="M 135.109375 95.140625 C 134.734375 96.140625 134.21875 97.484375 134.09375 98 L 134.078125 98 C 134.03125 97.765625 133.890625 97.375 133.734375 96.90625 L 132.015625 92.390625 L 131.65625 91.453125 L 130.421875 91.453125 L 130.421875 99.015625 L 131.265625 99.015625 L 131.265625 92.25 L 131.28125 92.25 C 131.34375 92.609375 131.78125 93.796875 132.0625 94.53125 L 133.6875 98.78125 L 134.46875 98.78125 L 135.921875 94.984375 C 136.28125 94.09375 136.375 93.8125 136.453125 93.59375 C 136.5625 93.28125 136.859375 92.5 136.90625 92.25 L 136.921875 92.25 L 136.921875 99.015625 L 137.765625 99.015625 L 137.765625 91.453125 L 136.53125 91.453125 Z M 135.109375 95.140625 "/>
<path style=" stroke:none;fill-rule:nonzero;fill:rgb(0%,0%,0%);fill-opacity:1;" d="M 121.066406 137.15625 L 122.613281 137.15625 L 122.613281 136.515625 L 121.066406 136.515625 L 121.066406 135.125 L 120.316406 135.125 L 120.316406 136.515625 L 119.363281 136.515625 L 119.363281 137.15625 L 120.285156 137.15625 L 120.285156 140.0625 C 120.285156 140.71875 120.441406 141.484375 121.191406 141.484375 C 121.957031 141.484375 122.503906 141.203125 122.785156 141.0625 L 122.613281 140.421875 C 122.316406 140.65625 121.972656 140.78125 121.628906 140.78125 C 121.222656 140.78125 121.066406 140.453125 121.066406 139.875 Z M 121.066406 137.15625 "/>
<path style=" stroke:none;fill-rule:nonzero;fill:rgb(0%,0%,0%);fill-opacity:1;" d="M 124.820312 139.03125 C 124.820312 137.9375 125.601562 137.15625 126.664062 137.125 L 126.664062 136.390625 C 125.695312 136.40625 125.101562 136.9375 124.757812 137.4375 L 124.757812 136.453125 L 123.992188 136.453125 L 123.992188 141.359375 L 124.820312 141.359375 Z M 124.820312 139.03125 "/>
<path style=" stroke:none;fill-rule:nonzero;fill:rgb(0%,0%,0%);fill-opacity:1;" d="M 131.1875 138.203125 C 131.1875 137.09375 130.390625 136.328125 129.375 136.328125 C 128.671875 136.328125 128.1875 136.5 127.671875 136.796875 L 127.734375 137.515625 C 128.296875 137.109375 128.84375 136.96875 129.375 136.96875 C 129.890625 136.96875 130.328125 137.40625 130.328125 138.21875 L 130.328125 138.6875 C 128.6875 138.703125 127.3125 139.171875 127.3125 140.125 C 127.3125 140.59375 127.609375 141.484375 128.546875 141.484375 C 128.703125 141.484375 129.734375 141.453125 130.359375 140.96875 L 130.359375 141.359375 L 131.1875 141.359375 Z M 130.328125 139.921875 C 130.328125 140.125 130.328125 140.40625 129.953125 140.609375 C 129.640625 140.796875 129.234375 140.8125 129.109375 140.8125 C 128.578125 140.8125 128.09375 140.5625 128.09375 140.109375 C 128.09375 139.34375 129.859375 139.265625 130.328125 139.25 Z M 130.328125 139.921875 "/>
<path style=" stroke:none;fill-rule:nonzero;fill:rgb(0%,0%,0%);fill-opacity:1;" d="M 136.539062 136.796875 C 135.898438 136.4375 135.523438 136.328125 134.867188 136.328125 C 133.351562 136.328125 132.460938 137.65625 132.460938 138.9375 C 132.460938 140.296875 133.460938 141.484375 134.820312 141.484375 C 135.414062 141.484375 136.007812 141.328125 136.601562 140.921875 L 136.523438 140.1875 C 135.976562 140.625 135.382812 140.78125 134.835938 140.78125 C 133.929688 140.78125 133.320312 140 133.320312 138.921875 C 133.320312 138.078125 133.710938 137.03125 134.867188 137.03125 C 135.445312 137.03125 135.804688 137.109375 136.414062 137.515625 Z M 136.539062 136.796875 "/>
<path style=" stroke:none;fill-rule:nonzero;fill:rgb(0%,0%,0%);fill-opacity:1;" d="M 141.433594 138.96875 C 141.433594 138.59375 141.417969 137.78125 140.996094 137.125 C 140.542969 136.453125 139.886719 136.328125 139.496094 136.328125 C 138.277344 136.328125 137.292969 137.484375 137.292969 138.890625 C 137.292969 140.328125 138.339844 141.484375 139.652344 141.484375 C 140.339844 141.484375 140.964844 141.21875 141.386719 140.90625 L 141.324219 140.203125 C 140.636719 140.765625 139.917969 140.8125 139.667969 140.8125 C 138.792969 140.8125 138.089844 140.046875 138.058594 138.96875 Z M 138.121094 138.375 C 138.292969 137.546875 138.871094 137 139.496094 137 C 140.058594 137 140.667969 137.375 140.808594 138.375 Z M 138.121094 138.375 "/>
<path style="fill:none;stroke-width:0.99628;stroke-linecap:butt;stroke-linejoin:miter;stroke:rgb(96.076965%,52.156067%,6.666565%);stroke-opacity:1;stroke-miterlimit:10;" d="M 130.464844 109.898438 L 130.464844 130.460938 "/>
<path style="fill:none;stroke-width:0.79701;stroke-linecap:round;stroke-linejoin:round;stroke:rgb(96.076965%,52.156067%,6.666565%);stroke-opacity:1;stroke-miterlimit:10;" d="M 132.777344 128.726562 C 131.910156 128.871094 130.609375 130.460938 130.464844 130.894531 C 130.320312 130.460938 129.023438 128.871094 128.15625 128.726562 "/>
<path style="fill:none;stroke-width:0.99628;stroke-linecap:butt;stroke-linejoin:miter;stroke:rgb(0%,0%,100%);stroke-opacity:1;stroke-miterlimit:10;" d="M 9.992188 166.09375 L 80.859375 166.09375 L 80.859375 194.441406 L 9.992188 194.441406 Z M 9.992188 166.09375 "/>
<path style=" stroke:none;fill-rule:nonzero;fill:rgb(0%,0%,100%);fill-opacity:1;" d="M 33.113281 181.128906 C 33.441406 181.441406 33.925781 181.753906 34.582031 181.753906 C 35.644531 181.753906 36.597656 180.675781 36.597656 179.191406 C 36.597656 177.894531 35.910156 176.660156 34.863281 176.660156 C 34.207031 176.660156 33.582031 176.894531 33.082031 177.316406 L 33.082031 176.785156 L 32.253906 176.785156 L 32.253906 183.738281 L 33.113281 183.738281 Z M 33.113281 178.003906 C 33.363281 177.613281 33.800781 177.363281 34.269531 177.363281 C 35.097656 177.363281 35.753906 178.191406 35.753906 179.191406 C 35.753906 180.316406 34.972656 181.082031 34.160156 181.082031 C 33.722656 181.082031 33.441406 180.863281 33.222656 180.566406 C 33.113281 180.410156 33.113281 180.378906 33.113281 180.191406 Z M 33.113281 178.003906 "/>
<path style=" stroke:none;fill-rule:nonzero;fill:rgb(0%,0%,100%);fill-opacity:1;" d="M 38.414062 179.300781 C 38.414062 178.207031 39.195312 177.425781 40.257812 177.394531 L 40.257812 176.660156 C 39.289062 176.675781 38.695312 177.207031 38.351562 177.707031 L 38.351562 176.722656 L 37.585938 176.722656 L 37.585938 181.628906 L 38.414062 181.628906 Z M 38.414062 179.300781 "/>
<path style=" stroke:none;fill-rule:nonzero;fill:rgb(0%,0%,100%);fill-opacity:1;" d="M 45.53125 179.222656 C 45.53125 177.769531 44.453125 176.597656 43.140625 176.597656 C 41.8125 176.597656 40.75 177.800781 40.75 179.222656 C 40.75 180.675781 41.859375 181.753906 43.140625 181.753906 C 44.453125 181.753906 45.53125 180.644531 45.53125 179.222656 Z M 43.140625 181.050781 C 42.390625 181.050781 41.59375 180.441406 41.59375 179.113281 C 41.59375 177.800781 42.421875 177.269531 43.140625 177.269531 C 43.90625 177.269531 44.6875 177.832031 44.6875 179.113281 C 44.6875 180.410156 43.9375 181.050781 43.140625 181.050781 Z M 43.140625 181.050781 "/>
<path style=" stroke:none;fill-rule:nonzero;fill:rgb(0%,0%,100%);fill-opacity:1;" d="M 50.738281 176.785156 L 49.925781 176.785156 L 49.066406 179.050781 C 48.832031 179.660156 48.503906 180.535156 48.410156 181.050781 L 48.394531 181.050781 C 48.332031 180.660156 48.050781 179.910156 47.941406 179.613281 L 46.878906 176.785156 L 46.035156 176.785156 L 47.910156 181.628906 L 48.863281 181.628906 Z M 50.738281 176.785156 "/>
<path style=" stroke:none;fill-rule:nonzero;fill:rgb(0%,0%,100%);fill-opacity:1;" d="M 55.421875 179.238281 C 55.421875 178.863281 55.40625 178.050781 54.984375 177.394531 C 54.53125 176.722656 53.875 176.597656 53.484375 176.597656 C 52.265625 176.597656 51.28125 177.753906 51.28125 179.160156 C 51.28125 180.597656 52.328125 181.753906 53.640625 181.753906 C 54.328125 181.753906 54.953125 181.488281 55.375 181.175781 L 55.3125 180.472656 C 54.625 181.035156 53.90625 181.082031 53.65625 181.082031 C 52.78125 181.082031 52.078125 180.316406 52.046875 179.238281 Z M 52.109375 178.644531 C 52.28125 177.816406 52.859375 177.269531 53.484375 177.269531 C 54.046875 177.269531 54.65625 177.644531 54.796875 178.644531 Z M 52.109375 178.644531 "/>
<path style=" stroke:none;fill-rule:nonzero;fill:rgb(0%,0%,100%);fill-opacity:1;" d="M 57.476562 179.300781 C 57.476562 178.207031 58.257812 177.425781 59.320312 177.394531 L 59.320312 176.660156 C 58.351562 176.675781 57.757812 177.207031 57.414062 177.707031 L 57.414062 176.722656 L 56.648438 176.722656 L 56.648438 181.628906 L 57.476562 181.628906 Z M 57.476562 179.300781 "/>
<path style="fill:none;stroke-width:0.99628;stroke-linecap:butt;stroke-linejoin:miter;stroke:rgb(0%,0%,100%);stroke-opacity:1;stroke-miterlimit:10;" d="M 13.535156 18.789062 L 42.371094 164.78125 "/>
<path style="fill:none;stroke-width:0.796969;stroke-linecap:round;stroke-linejoin:round;stroke:rgb(0%,0%,100%);stroke-opacity:1;stroke-miterlimit:10;" d="M 44.300781 162.632812 C 43.480469 162.941406 42.511719 164.75 42.453125 165.203125 C 42.226562 164.808594 40.644531 163.5 39.765625 163.527344 "/>
<path style="fill:none;stroke-width:0.99628;stroke-linecap:butt;stroke-linejoin:miter;stroke:rgb(0%,0%,100%);stroke-opacity:1;stroke-miterlimit:10;" d="M 112.167969 17.507812 C 59.597656 38.535156 45.425781 95.226562 45.425781 164.765625 "/>
<path style="fill:none;stroke-width:0.79701;stroke-linecap:round;stroke-linejoin:round;stroke:rgb(0%,0%,100%);stroke-opacity:1;stroke-miterlimit:10;" d="M 47.738281 163.03125 C 46.871094 163.175781 45.570312 164.765625 45.425781 165.195312 C 45.28125 164.765625 43.980469 163.175781 43.113281 163.03125 "/>
<path style="fill:none;stroke-width:0.99628;stroke-linecap:butt;stroke-linejoin:miter;stroke:rgb(0%,0%,100%);stroke-opacity:1;stroke-miterlimit:10;" d="M 224.898438 13.890625 C 130.464844 32.371094 45.425781 32.371094 48.945312 164.765625 "/>
<path style="fill:none;stroke-width:0.796973;stroke-linecap:round;stroke-linejoin:round;stroke:rgb(0%,0%,100%);stroke-opacity:1;stroke-miterlimit:10;" d="M 51.210938 162.96875 C 50.347656 163.136719 49.089844 164.761719 48.957031 165.199219 C 48.800781 164.769531 47.460938 163.214844 46.589844 163.09375 "/>
<path style="fill:none;stroke-width:0.99628;stroke-linecap:butt;stroke-linejoin:miter;stroke:rgb(0%,0%,100%);stroke-opacity:1;stroke-miterlimit:10;" d="M 116.394531 145.199219 L 75.847656 165.226562 "/>
<path style="fill:none;stroke-width:0.79697;stroke-linecap:round;stroke-linejoin:round;stroke:rgb(0%,0%,100%);stroke-opacity:1;stroke-miterlimit:10;" d="M 78.425781 166.53125 C 77.914062 165.820312 75.910156 165.355469 75.460938 165.417969 C 75.785156 165.097656 76.632812 163.226562 76.378906 162.386719 "/>
<path style=" stroke:none;fill-rule:nonzero;fill:rgb(0%,0%,0%);fill-opacity:1;" d="M 120.410156 182.492188 C 120.738281 182.804688 121.222656 183.117188 121.878906 183.117188 C 122.941406 183.117188 123.894531 182.039062 123.894531 180.554688 C 123.894531 179.257812 123.207031 178.023438 122.160156 178.023438 C 121.503906 178.023438 120.878906 178.257812 120.378906 178.679688 L 120.378906 178.148438 L 119.550781 178.148438 L 119.550781 185.101562 L 120.410156 185.101562 Z M 120.410156 179.367188 C 120.660156 178.976562 121.097656 178.726562 121.566406 178.726562 C 122.394531 178.726562 123.050781 179.554688 123.050781 180.554688 C 123.050781 181.679688 122.269531 182.445312 121.457031 182.445312 C 121.019531 182.445312 120.738281 182.226562 120.519531 181.929688 C 120.410156 181.773438 120.410156 181.742188 120.410156 181.554688 Z M 120.410156 179.367188 "/>
<path style=" stroke:none;fill-rule:nonzero;fill:rgb(0%,0%,0%);fill-opacity:1;" d="M 125.710938 180.664062 C 125.710938 179.570312 126.492188 178.789062 127.554688 178.757812 L 127.554688 178.023438 C 126.585938 178.039062 125.992188 178.570312 125.648438 179.070312 L 125.648438 178.085938 L 124.882812 178.085938 L 124.882812 182.992188 L 125.710938 182.992188 Z M 125.710938 180.664062 "/>
<path style=" stroke:none;fill-rule:nonzero;fill:rgb(0%,0%,0%);fill-opacity:1;" d="M 132.828125 180.585938 C 132.828125 179.132812 131.75 177.960938 130.4375 177.960938 C 129.109375 177.960938 128.046875 179.164062 128.046875 180.585938 C 128.046875 182.039062 129.15625 183.117188 130.4375 183.117188 C 131.75 183.117188 132.828125 182.007812 132.828125 180.585938 Z M 130.4375 182.414062 C 129.6875 182.414062 128.890625 181.804688 128.890625 180.476562 C 128.890625 179.164062 129.71875 178.632812 130.4375 178.632812 C 131.203125 178.632812 131.984375 179.195312 131.984375 180.476562 C 131.984375 181.773438 131.234375 182.414062 130.4375 182.414062 Z M 130.4375 182.414062 "/>
<path style=" stroke:none;fill-rule:nonzero;fill:rgb(0%,0%,0%);fill-opacity:1;" d="M 138.589844 180.585938 C 138.589844 179.132812 137.511719 177.960938 136.199219 177.960938 C 134.871094 177.960938 133.808594 179.164062 133.808594 180.585938 C 133.808594 182.039062 134.917969 183.117188 136.199219 183.117188 C 137.511719 183.117188 138.589844 182.007812 138.589844 180.585938 Z M 136.199219 182.414062 C 135.449219 182.414062 134.652344 181.804688 134.652344 180.476562 C 134.652344 179.164062 135.480469 178.632812 136.199219 178.632812 C 136.964844 178.632812 137.746094 179.195312 137.746094 180.476562 C 137.746094 181.773438 136.996094 182.414062 136.199219 182.414062 Z M 136.199219 182.414062 "/>
<path style=" stroke:none;fill-rule:nonzero;fill:rgb(0%,0%,0%);fill-opacity:1;" d="M 140.855469 178.789062 L 142.058594 178.789062 L 142.058594 178.148438 L 140.824219 178.148438 L 140.824219 176.851562 C 140.824219 176.039062 141.558594 175.960938 141.839844 175.960938 C 142.058594 175.960938 142.339844 175.992188 142.714844 176.148438 L 142.714844 175.429688 C 142.589844 175.382812 142.246094 175.304688 141.839844 175.304688 C 140.824219 175.304688 140.027344 176.070312 140.027344 177.164062 L 140.027344 178.148438 L 139.230469 178.148438 L 139.230469 178.789062 L 140.027344 178.789062 L 140.027344 182.992188 L 140.855469 182.992188 Z M 140.855469 178.789062 "/>
<path style="fill:none;stroke-width:0.99628;stroke-linecap:butt;stroke-linejoin:miter;stroke:rgb(0%,0%,100%);stroke-opacity:1;stroke-miterlimit:10;" d="M 81.359375 180.265625 L 113.996094 180.265625 "/>
<path style="fill:none;stroke-width:0.79701;stroke-linecap:round;stroke-linejoin:round;stroke:rgb(0%,0%,100%);stroke-opacity:1;stroke-miterlimit:10;" d="M 112.261719 177.957031 C 112.40625 178.824219 113.996094 180.121094 114.429688 180.265625 C 113.996094 180.410156 112.40625 181.710938 112.261719 182.578125 "/>
<path style="fill:none;stroke-width:0.99628;stroke-linecap:butt;stroke-linejoin:miter;stroke:rgb(0%,49.803162%,0%);stroke-opacity:1;stroke-miterlimit:10;" d="M 180.074219 166.09375 L 250.941406 166.09375 L 250.941406 194.441406 L 180.074219 194.441406 Z M 180.074219 166.09375 "/>
<path style=" stroke:none;fill-rule:nonzero;fill:rgb(0%,49.803162%,0%);fill-opacity:1;" d="M 205.042969 179.210938 L 204.230469 179.210938 L 203.371094 181.476562 C 203.136719 182.085938 202.808594 182.960938 202.714844 183.476562 L 202.699219 183.476562 C 202.636719 183.085938 202.355469 182.335938 202.246094 182.039062 L 201.183594 179.210938 L 200.339844 179.210938 L 202.214844 184.054688 L 203.167969 184.054688 Z M 205.042969 179.210938 "/>
<path style=" stroke:none;fill-rule:nonzero;fill:rgb(0%,49.803162%,0%);fill-opacity:1;" d="M 209.730469 181.664062 C 209.730469 181.289062 209.714844 180.476562 209.292969 179.820312 C 208.839844 179.148438 208.183594 179.023438 207.792969 179.023438 C 206.574219 179.023438 205.589844 180.179688 205.589844 181.585938 C 205.589844 183.023438 206.636719 184.179688 207.949219 184.179688 C 208.636719 184.179688 209.261719 183.914062 209.683594 183.601562 L 209.621094 182.898438 C 208.933594 183.460938 208.214844 183.507812 207.964844 183.507812 C 207.089844 183.507812 206.386719 182.742188 206.355469 181.664062 Z M 206.417969 181.070312 C 206.589844 180.242188 207.167969 179.695312 207.792969 179.695312 C 208.355469 179.695312 208.964844 180.070312 209.105469 181.070312 Z M 206.417969 181.070312 "/>
<path style=" stroke:none;fill-rule:nonzero;fill:rgb(0%,49.803162%,0%);fill-opacity:1;" d="M 211.78125 181.726562 C 211.78125 180.632812 212.5625 179.851562 213.625 179.820312 L 213.625 179.085938 C 212.65625 179.101562 212.0625 179.632812 211.71875 180.132812 L 211.71875 179.148438 L 210.953125 179.148438 L 210.953125 184.054688 L 211.78125 184.054688 Z M 211.78125 181.726562 "/>
<path style=" stroke:none;fill-rule:nonzero;fill:rgb(0%,49.803162%,0%);fill-opacity:1;" d="M 215.574219 176.632812 L 214.605469 176.632812 L 214.605469 177.601562 L 215.574219 177.601562 Z M 215.496094 179.210938 L 214.683594 179.210938 L 214.683594 184.054688 L 215.496094 184.054688 Z M 215.496094 179.210938 "/>
<path style=" stroke:none;fill-rule:nonzero;fill:rgb(0%,49.803162%,0%);fill-opacity:1;" d="M 221.382812 176.476562 L 220.476562 176.476562 L 220.476562 177.382812 L 221.382812 177.382812 Z M 221.335938 179.210938 L 220.523438 179.210938 L 220.523438 184.054688 L 221.335938 184.054688 Z M 218.320312 179.851562 L 219.601562 179.851562 L 219.601562 179.210938 L 218.289062 179.210938 L 218.289062 177.898438 C 218.289062 177.195312 218.679688 177.023438 218.945312 177.023438 C 219.179688 177.023438 219.414062 177.101562 219.601562 177.226562 L 219.601562 176.492188 C 219.539062 176.460938 219.273438 176.367188 218.945312 176.367188 C 218.148438 176.367188 217.492188 177.132812 217.492188 178.226562 L 217.492188 179.210938 L 216.695312 179.210938 L 216.695312 179.851562 L 217.492188 179.851562 L 217.492188 184.054688 L 218.320312 184.054688 Z M 218.320312 179.851562 "/>
<path style=" stroke:none;fill-rule:nonzero;fill:rgb(0%,49.803162%,0%);fill-opacity:1;" d="M 226.761719 181.664062 C 226.761719 181.289062 226.746094 180.476562 226.324219 179.820312 C 225.871094 179.148438 225.214844 179.023438 224.824219 179.023438 C 223.605469 179.023438 222.621094 180.179688 222.621094 181.585938 C 222.621094 183.023438 223.667969 184.179688 224.980469 184.179688 C 225.667969 184.179688 226.292969 183.914062 226.714844 183.601562 L 226.652344 182.898438 C 225.964844 183.460938 225.246094 183.507812 224.996094 183.507812 C 224.121094 183.507812 223.417969 182.742188 223.386719 181.664062 Z M 223.449219 181.070312 C 223.621094 180.242188 224.199219 179.695312 224.824219 179.695312 C 225.386719 179.695312 225.996094 180.070312 226.136719 181.070312 Z M 223.449219 181.070312 "/>
<path style=" stroke:none;fill-rule:nonzero;fill:rgb(0%,49.803162%,0%);fill-opacity:1;" d="M 228.8125 181.726562 C 228.8125 180.632812 229.59375 179.851562 230.65625 179.820312 L 230.65625 179.085938 C 229.6875 179.101562 229.09375 179.632812 228.75 180.132812 L 228.75 179.148438 L 227.984375 179.148438 L 227.984375 184.054688 L 228.8125 184.054688 Z M 228.8125 181.726562 "/>
<path style="fill:none;stroke-width:0.99628;stroke-linecap:butt;stroke-linejoin:miter;stroke:rgb(0%,49.803162%,0%);stroke-opacity:1;stroke-miterlimit:10;" d="M 20.621094 18.789062 C 130.464844 25.875 215.507812 32.960938 211.984375 164.765625 "/>
<path style="fill:none;stroke-width:0.796967;stroke-linecap:round;stroke-linejoin:round;stroke:rgb(0%,49.803162%,0%);stroke-opacity:1;stroke-miterlimit:10;" d="M 214.34375 163.09375 C 213.472656 163.214844 212.128906 164.769531 211.972656 165.199219 C 211.839844 164.761719 210.582031 163.136719 209.722656 162.96875 "/>
<path style="fill:none;stroke-width:0.99628;stroke-linecap:butt;stroke-linejoin:miter;stroke:rgb(0%,49.803162%,0%);stroke-opacity:1;stroke-miterlimit:10;" d="M 134.007812 17.507812 C 158.8125 24.59375 215.507812 31.679688 215.507812 164.765625 "/>
<path style="fill:none;stroke-width:0.79701;stroke-linecap:round;stroke-linejoin:round;stroke:rgb(0%,49.803162%,0%);stroke-opacity:1;stroke-miterlimit:10;" d="M 217.816406 163.03125 C 216.953125 163.175781 215.652344 164.765625 215.507812 165.195312 C 215.363281 164.765625 214.0625 163.175781 213.195312 163.03125 "/>
<path style="fill:none;stroke-width:0.99628;stroke-linecap:butt;stroke-linejoin:miter;stroke:rgb(0%,49.803162%,0%);stroke-opacity:1;stroke-miterlimit:10;" d="M 242.519531 18.199219 L 218.082031 164.773438 "/>
<path style="fill:none;stroke-width:0.796969;stroke-linecap:round;stroke-linejoin:round;stroke:rgb(0%,49.803162%,0%);stroke-opacity:1;stroke-miterlimit:10;" d="M 220.648438 163.445312 C 219.769531 163.445312 218.226562 164.800781 218.011719 165.203125 C 217.941406 164.75 216.917969 162.96875 216.089844 162.683594 "/>
<path style="fill:none;stroke-width:0.99628;stroke-linecap:butt;stroke-linejoin:miter;stroke:rgb(0%,49.803162%,0%);stroke-opacity:1;stroke-miterlimit:10;" d="M 146.105469 180.265625 L 178.742188 180.265625 "/>
<path style="fill:none;stroke-width:0.79701;stroke-linecap:round;stroke-linejoin:round;stroke:rgb(0%,49.803162%,0%);stroke-opacity:1;stroke-miterlimit:10;" d="M 177.007812 177.957031 C 177.152344 178.824219 178.742188 180.121094 179.175781 180.265625 C 178.742188 180.410156 177.152344 181.710938 177.007812 182.578125 "/>
<path style=" stroke:none;fill-rule:nonzero;fill:rgb(0%,0%,0%);fill-opacity:1;" d="M 269 179.429688 C 269 178.570312 268.953125 177.554688 268.5 176.679688 C 268.046875 175.867188 267.296875 175.601562 266.734375 175.601562 C 266.09375 175.601562 265.328125 175.898438 264.890625 176.867188 C 264.53125 177.664062 264.46875 178.570312 264.46875 179.429688 C 264.46875 180.304688 264.515625 181.101562 264.84375 181.898438 C 265.28125 182.945312 266.109375 183.226562 266.734375 183.226562 C 267.53125 183.226562 268.21875 182.789062 268.5625 182.039062 C 268.890625 181.320312 269 180.601562 269 179.429688 Z M 266.734375 182.570312 C 266.171875 182.570312 265.734375 182.148438 265.515625 181.367188 C 265.328125 180.742188 265.328125 180.164062 265.328125 179.304688 C 265.328125 178.617188 265.328125 177.960938 265.515625 177.367188 C 265.578125 177.164062 265.84375 176.257812 266.734375 176.257812 C 267.578125 176.257812 267.859375 177.085938 267.9375 177.289062 C 268.15625 177.898438 268.15625 178.632812 268.15625 179.304688 C 268.15625 180.023438 268.15625 180.710938 267.953125 181.398438 C 267.671875 182.398438 267.09375 182.570312 266.734375 182.570312 Z M 266.734375 182.570312 "/>
<path style=" stroke:none;fill-rule:nonzero;fill:rgb(0%,0%,0%);fill-opacity:1;" d="M 274.25 175.226562 C 274.296875 175.085938 274.296875 175.054688 274.296875 175.023438 C 274.296875 174.914062 274.203125 174.820312 274.078125 174.820312 C 273.921875 174.820312 273.890625 174.914062 273.859375 175.023438 L 270.140625 185.304688 C 270.078125 185.445312 270.078125 185.476562 270.078125 185.507812 C 270.078125 185.617188 270.171875 185.710938 270.296875 185.710938 C 270.453125 185.710938 270.5 185.617188 270.53125 185.507812 Z M 274.25 175.226562 "/>
<path style=" stroke:none;fill-rule:nonzero;fill:rgb(0%,0%,0%);fill-opacity:1;" d="M 278.1875 175.601562 L 277.96875 175.601562 C 277.328125 176.257812 276.421875 176.289062 275.890625 176.320312 L 275.890625 176.945312 C 276.25 176.945312 276.78125 176.914062 277.328125 176.695312 L 277.328125 182.367188 L 275.953125 182.367188 L 275.953125 182.992188 L 279.546875 182.992188 L 279.546875 182.367188 L 278.1875 182.367188 Z M 278.1875 175.601562 "/>
<path style="fill:none;stroke-width:0.99628;stroke-linecap:butt;stroke-linejoin:miter;stroke:rgb(0%,49.803162%,0%);stroke-opacity:1;stroke-miterlimit:10;" d="M 251.4375 180.265625 L 259.351562 180.265625 "/>
<path style="fill:none;stroke-width:0.79701;stroke-linecap:round;stroke-linejoin:round;stroke:rgb(0%,49.803162%,0%);stroke-opacity:1;stroke-miterlimit:10;" d="M 257.617188 177.957031 C 257.761719 178.824219 259.351562 180.121094 259.785156 180.265625 C 259.351562 180.410156 257.761719 181.710938 257.617188 182.578125 "/>
</g>
</svg>
